<svg xmlns="http://www.w3.org/2000/svg" viewBox="0 0 775.41 351.75"><defs><style>.cls-1{fill:#fff;}</style></defs><title>logo-bw</title><g id="Layer_2" data-name="Layer 2"><g id="B_W" data-name="B&amp;W"><path class="cls-1" d="M288.59,61.12c-5.79,0-11.59-.12-17.38,0-3.61.09-5-1.49-4.7-4.95A38.89,38.89,0,0,1,282.39,27c13.37-10,28.19-12.23,44-5.56,3.72,1.58,4.41,3.4,2.3,6.93-5.78,9.68-11.37,19.47-16.89,29.3-1.36,2.42-3,3.56-5.81,3.5C300.17,61,294.38,61.12,288.59,61.12Z"/><path class="cls-1" d="M375.94,42.88a20.3,20.3,0,0,1-3-1.17C362.8,35.89,352.68,30,342.48,24.21c-3.55-2-3.79-4-1.3-7.22,18.13-23.13,52.23-22.56,69.41,1.21,1.67,2.32,2.4,4-.78,5.76C399.47,29.79,389.26,35.85,379,41.78A19.74,19.74,0,0,1,375.94,42.88Z"/><path class="cls-1" d="M463,61.13c-5.64,0-11.27-.07-16.9,0a6,6,0,0,1-6-3.25q-9-15.87-18.28-31.61c-1.71-2.93.34-3.77,2.34-4.68,12.62-5.77,25.31-5.29,37.39,1,13,6.79,21,17.78,23.34,32.49.82,5,.12,5.95-5,6C474.22,61.17,468.59,61.14,463,61.13Z"/><path class="cls-1" d="M375.49,351.75c-13.83-.54-25.65-6.1-34.47-17.71-2.2-2.89-2.38-4.7,1.28-6.7,10-5.48,19.85-11.3,29.71-17.07a5.78,5.78,0,0,1,6.41-.14c10.27,6,20.55,11.93,30.9,17.77,2.93,1.66,2.9,3.38,1.1,5.87C402,345.51,390.26,351,375.49,351.75Z"/><path class="cls-1" d="M462.5,290.58c5.47,0,10.95,0,16.43,0s6.18.64,5.41,6.17c-2,14.36-9.35,25.25-22.27,32-12.35,6.45-25,6.8-37.82,1.11-3-1.35-3.73-2.79-1.87-5.9,5.8-9.64,11.33-19.44,16.87-29.23,1.65-2.93,3.69-4.44,7.27-4.24C451.83,290.79,457.17,290.57,462.5,290.58Z"/><path class="cls-1" d="M490.67,88.25c0-5.18,0-10.36,0-15.55,0-6.16,1.14-7.24,7.45-5.75C515.57,71.08,527.34,81.5,532.23,99A40.67,40.67,0,0,1,530,127.13c-1.4,3.17-3.1,3.55-6,1.84q-14.76-8.72-29.7-17.12c-2.79-1.56-3.76-3.63-3.69-6.68C490.77,99.53,490.67,93.89,490.67,88.25Z"/><path class="cls-1" d="M490.63,263.26c0-5.93,0-11.87,0-17.81,0-2.34.66-4,2.82-5.26,10.72-6,21.39-12.14,32.1-18.2,2.64-1.49,3.19.93,3.88,2.41,5.36,11.54,5.9,23.31.52,34.9-6.93,14.9-18.25,24-35.13,25.39-3.32.27-4.3-.92-4.21-4.07C490.76,274.84,490.64,269.05,490.63,263.26Z"/><path class="cls-1" d="M260.39,88.42c0,5.79-.1,11.59.05,17.37a5.46,5.46,0,0,1-3.16,5.47C247,117.11,236.65,123,226.45,129.09c-2.62,1.56-3.57.66-4.81-1.63-7.56-14-4.51-34.86,6.72-46.81,7.62-8.11,16.71-12.93,27.83-14.08,3.39-.35,4.3.93,4.23,4C260.3,76.54,260.39,82.48,260.39,88.42Z"/><path class="cls-1" d="M288.51,290.51c5.49,0,11,.09,16.45,0a5.77,5.77,0,0,1,5.89,3.26q8.61,15.31,17.57,30.43c1.64,2.76,1.13,4.25-1.7,5.69-24.25,12.35-57.52-5.84-60.14-32.94-.59-6.14-.38-6.38,5.94-6.39Z"/><path class="cls-1" d="M260.38,263.24c0,5.95-.09,11.89,0,17.84.06,2.7-.67,3.63-3.63,3.55-16.09-.44-32.32-13.37-37.34-29.76-2.62-8.57-2.87-17,0-25.53,1.81-5.41,5.64-7.44,10.69-4.68,9.47,5.19,18.74,10.76,28.13,16.1,1.94,1.09,2.16,2.73,2.15,4.64C260.36,251.35,260.38,257.29,260.38,263.24Z"/><path class="cls-1" d="M217.83,193.74c-3.81,0-7.62-.07-11.43,0-1.92.05-3.18-.57-3.84-2.45-4-11.22-3.95-22.29.89-33.3,1-2.35,2.51-3.08,4.93-3q9.38.17,18.75,0a5.39,5.39,0,0,1,5.46,3.2c2.57,4.83,5.32,9.59,8.24,14.23a5.52,5.52,0,0,1-.05,6.66c-2.44,3.86-4.8,7.79-6.85,11.86-1.18,2.33-2.78,2.89-5.12,2.82C225.15,193.66,221.49,193.74,217.83,193.74Z"/><path class="cls-1" d="M369,47.15c-.24,1.19-1.29,1.63-2.12,2.27a75.36,75.36,0,0,0-17.3,18c-1.47,2.2-3,2.63-5.33,1.42A66.88,66.88,0,0,0,319.83,62c-3.2-.3-4.09-1.68-2.47-4.49q7.83-13.64,15.71-27.26c1.43-2.45,3.22-3.33,6-1.65,9.26,5.54,18.62,10.92,27.92,16.38C367.91,45.45,369,45.8,369,47.15Z"/><path class="cls-1" d="M434.41,59.49c.24,2-1.11,2.26-2.54,2.47C423.24,63.19,414.79,65,407,69.1c-1.89,1-3.21.29-4.26-1.28-5-7.57-11.54-13.7-18.78-19.11-2.15-1.6-1.59-3.05.39-4.22q14-8.22,28-16.36c2-1.19,3.87-.84,5.08,1.25q8.33,14.42,16.57,28.88A7.75,7.75,0,0,1,434.41,59.49Z"/><path class="cls-1" d="M465,285.28c-5.47,0-10.95,0-16.42,0-2.44,0-3.35-.78-2.25-3.32a74.49,74.49,0,0,0,6.28-24.6c.18-2.47,1.27-3.88,4.24-4.27,8.12-1.07,16.25-2.4,23.72-6.09,2.86-1.42,4.41-.48,4.42,2.66.06,10.65,0,21.3.05,31.94,0,2.74-1.5,3.71-4.07,3.68C475.61,285.24,470.29,285.27,465,285.28Z"/><path class="cls-1" d="M465,66.5c5.18,0,10.37.08,15.55,0,3.29-.06,4.69,1.4,4.67,4.67q-.1,15.31,0,30.64c0,3.57-1.33,4.23-4.48,2.91a78.36,78.36,0,0,0-23.4-6c-2.73-.24-4.28-1.33-4.57-4-.93-8.67-2.49-17.17-6.43-25.09-1.29-2.59.46-3.13,2.65-3.12C454.31,66.52,459.64,66.5,465,66.5Z"/><path class="cls-1" d="M266.53,86.29c0-5,.09-10.06,0-15.08-.08-3.23,1.09-4.75,4.5-4.72,10.21.1,20.42.08,30.62,0,3.84,0,4.43,1.48,3,4.81a73.38,73.38,0,0,0-6,23.8c-.14,1.88-.79,3.18-2.85,3.5-8.74,1.36-17.43,2.87-25.57,6.65-2.67,1.24-3.56-.6-3.58-3,0-5.33,0-10.67,0-16Z"/><path class="cls-1" d="M414.4,324.3c-.62-.3-1.46-.66-2.24-1.11-9.09-5.26-18.11-10.64-27.29-15.75-3.41-1.9-2.7-3.3-.17-5.18a76.09,76.09,0,0,0,16.84-17.19c1.75-2.49,3.63-2.78,6.23-1.49,7,3.49,14.57,5.2,22.26,6.41,4.91.77,5.23,1.46,2.74,5.77q-7.45,12.84-15,25.64C417.07,322.68,416.56,324.28,414.4,324.3Z"/><path class="cls-1" d="M336.74,324.2c-1.71.25-2.19-1-2.79-2-5.51-9.46-10.95-19-16.53-28.37-1.5-2.53-.34-3.2,1.87-3.56,8.71-1.44,17.33-3.18,25.2-7.46,1.29-.7,2.56-.75,3.57.73a79.75,79.75,0,0,0,19.27,19.86c1.8,1.29,1.53,2.4-.23,3.42L337.87,323.7A11,11,0,0,1,336.74,324.2Z"/><path class="cls-1" d="M285.91,285.25c-5.18,0-10.36-.05-15.54,0-2.53,0-4-.61-4-3.56q.15-16.23,0-32.46c0-2.87,1-3.58,3.54-2.38,7.94,3.76,16.43,5.37,25.07,6.33,1.93.21,2.6,1.06,2.8,2.83,1,9.12,3,18,6.94,26.38,1.2,2.54-.47,2.83-2.4,2.82Z"/><path class="cls-1" d="M317.12,66.55c8.25,1.28,16.42,3,24.07,6.63,2.62,1.26,3.2,3,1.95,5.54a73.86,73.86,0,0,0-6.8,24.08c-.36,3-1.55,3.78-4.18,2.55-7.83-3.66-16.21-5.22-24.66-6.49-3.21-.48-4.6-1.92-4-5.22,1.43-7.81,3.27-15.47,6.55-22.78C311.52,67.59,313.44,65.93,317.12,66.55Z"/><path class="cls-1" d="M375.78,95c-1.18-.24-1.71-1.2-2.31-2.07a71.74,71.74,0,0,0-18.22-17.77c-2.63-1.83-2.75-3.62-.95-6.06a88.92,88.92,0,0,1,17.45-17.32,5.2,5.2,0,0,1,6.72-.24c7.56,5.06,13.7,11.56,19.17,18.75,1.25,1.63,1.68,3.23-.49,4.61a66.89,66.89,0,0,0-18.84,18.38A3.11,3.11,0,0,1,375.78,95Z"/><path class="cls-1" d="M266.38,116.31c-.48-2.54,1.29-4.6,4.91-6.26,6.74-3.09,13.82-4.62,21-5.84,4-.68,6.07.57,6.45,5.19a61.75,61.75,0,0,0,6.12,22.79c1.65,3.29.51,4.31-2.67,4.71-8.4,1-16.86,2-24.25,6.73-2.08,1.33-3.65,1-4.75-1.41A72.83,72.83,0,0,1,266.38,116.31Z"/><path class="cls-1" d="M433.69,66.58c3.71-.7,5.78,1.12,7.2,4.26A79.47,79.47,0,0,1,447.57,94c.31,2.65-.29,4.42-3.4,4.74A81.7,81.7,0,0,0,420,105.1c-2.53,1.1-4,.51-4.5-2.42-1.34-8.6-3.4-17-7.26-24.89-1.38-2.83.38-4.29,2.64-5.32C418.12,69.14,425.89,67.7,433.69,66.58Z"/><path class="cls-1" d="M435.3,285.14a75.29,75.29,0,0,1-25.71-6.67c-2.33-1.08-2.77-2.56-1.61-4.73,4-7.48,6-15.57,7-23.92.39-3.24,1.74-4.26,4.87-2.76,7.63,3.67,15.87,5.17,24.19,6.1,3.15.36,3.85,1.87,3.51,4.53a80.43,80.43,0,0,1-6.74,24.06C439.59,284.3,437.9,285.58,435.3,285.14Z"/><path class="cls-1" d="M316.23,284.68c-2.9.72-4.91-1-6.38-4.52a96,96,0,0,1-6.33-22.82c-.37-2.44.09-3.85,3.14-4.2,8.78-1,17.45-2.66,25.47-6.64,2.24-1.11,3.48-.65,3.66,2a73.86,73.86,0,0,0,6.94,25.44c1.06,2.34.48,3.72-1.78,4.71A68.5,68.5,0,0,1,316.23,284.68Z"/><path class="cls-1" d="M376,256.42c.79,1.19,1.44,2.21,2.14,3.2A71.7,71.7,0,0,0,396.05,277c2.31,1.61,2.48,3.11.9,5.26a75.6,75.6,0,0,1-18.23,17.77,4.93,4.93,0,0,1-6.29-.07,76.57,76.57,0,0,1-18.21-17.8c-1.26-1.74-2.23-3.3.19-5a75.76,75.76,0,0,0,18.87-18.38A21.3,21.3,0,0,1,376,256.42Z"/><path class="cls-1" d="M470.54,139.68c-7.38.63-14.52-2.77-22.09-3.39-2.33-.19-3.23-1.45-2.21-3.76a75.9,75.9,0,0,0,6.42-25c.2-2.43,1.25-3.83,4.12-3.51A70.38,70.38,0,0,1,482,111.38c2,1.06,3.43,2.54,3,5.06-.76,4.8-1,9.66-2.42,14.37C480,139.68,480,139.69,470.54,139.68Z"/><path class="cls-1" d="M259,116.81c1.74.33,1.93,1.56,2,2.78a71.85,71.85,0,0,0,7.16,25.34c.92,1.9.48,3-1.22,4.17a74.09,74.09,0,0,0-18.37,17.61c-2.09,2.8-3.48,2.24-4.91-.44-.79-1.47-1.66-2.9-2.5-4.35-1.9-3.24-4.19-6,.49-9.5,2.74-2.07,2-6.55.59-9.88-1.16-2.84-3.87-2.89-6.58-3-3.12-.16-7.73,1.63-8.59-2.79-.68-3.53,4-3.73,6.36-5.18,7.49-4.64,15.21-8.91,22.85-13.31C257.27,117.7,258.22,117.24,259,116.81Z"/><path class="cls-1" d="M340.89,106.87c1-9.14,2.6-18.1,6.67-26.45,1.16-2.38,2.44-2.67,4.62-1.1a74.35,74.35,0,0,1,19.18,20,4.73,4.73,0,0,1,.22,5.14c-3.44,7-6.22,14.24-7.2,22.06-.31,2.42-1.31,2.46-2.86.8-5.54-5.9-11.24-11.61-18.24-15.84A4.67,4.67,0,0,1,340.89,106.87Z"/><path class="cls-1" d="M281.19,176.1a16.46,16.46,0,0,0,0,3.65c1.76,7.75-3.85,12.31-7.56,17.68-1.2,1.73-2.59,1-3.95.08-7.69-5.22-13.77-12-19-19.54-1.24-1.79-1-3.32.22-5a77.64,77.64,0,0,1,18.39-18.89c2-1.44,3-1.05,4.54.62C279.4,160.79,283.25,167.41,281.19,176.1Z"/><path class="cls-1" d="M410.44,106.89c.34,1.8-1.1,4.08-4,5.9-5.88,3.64-10.57,8.68-15.25,13.69-.71.76-1.32,1.94-2.54,1.63s-1.1-1.65-1.29-2.68a77.07,77.07,0,0,0-6.78-20.75c-1.16-2.31-1.7-4.57.06-6.85,5.3-6.88,10.66-13.66,18.19-18.38,2.43-1.53,3.76-1.4,4.93,1.2A77.53,77.53,0,0,1,410.44,106.89Z"/><path class="cls-1" d="M307.16,104a77.31,77.31,0,0,1,25.73,7.46,5.21,5.21,0,0,1,3.19,4.64A78,78,0,0,0,340.49,138c.37,1.05,1.4,2.35.2,3.36-.9.76-2,0-3-.38-6-2.16-12.18-3.92-18.66-4-4.62-.09-7.47-2.21-9.26-6.6a105.82,105.82,0,0,1-6.29-22.38C303,105,303.92,103.47,307.16,104Z"/><path class="cls-1" d="M266.44,234c.51-8.66,2.93-16,5.87-23.22.61-1.51,1.19-3.77,3.3-2.89s5,1,5.5,4.05a15.55,15.55,0,0,1,.07,3.2c-.26,4.19.6,7.64,5.44,8.58,5.62,1.11,9.23-.52,10.66-5.74,1.09-4,3.59-3,6-2.5,3.41.77,1.6,3,.9,4.62a76.79,76.79,0,0,0-6,23.35c-.37,3.87-2.32,4.36-5.53,3.9a90.17,90.17,0,0,1-21.07-5.83C267.61,240,265.45,237.66,266.44,234Z"/><path class="cls-1" d="M447.79,107.52a77.75,77.75,0,0,1-7.22,25.57,5.16,5.16,0,0,1-4.58,3.14A114.07,114.07,0,0,0,418,139.35c-5.32,1.38-6.87-.54-5.62-6,1.37-5.92,3-11.81,3.22-17.93a4.89,4.89,0,0,1,3.09-4.62,76.36,76.36,0,0,1,24-6.73C446.08,103.73,448.21,104.8,447.79,107.52Z"/><path class="cls-1" d="M308.55,247.54c-4.18.28-5.53-1.15-5.07-4.06,1.37-8.61,3.41-17,7.42-24.86a4.68,4.68,0,0,1,4.19-2.91c7.61-.62,15.14-1.69,22.31-4.49,2.53-1,3.68-.11,2.76,2.49a95.93,95.93,0,0,0-4.74,22.77,4.22,4.22,0,0,1-2.29,3.72A75.16,75.16,0,0,1,308.55,247.54Z"/><path class="cls-1" d="M484.93,235.69a4.48,4.48,0,0,1-2.63,4.83c-7.79,4.09-16.18,6.08-24.84,7.18-2.81.36-4.35-1-4.7-3.67-.88-6.79-1.95-13.53-4.33-20-.73-2,.68-3.33,2-4.18,1.72-1.09,1.62,1.14,2.4,1.82,3.09,2.69,6.7,2.74,10.31,1.67,3.37-1,4.68-3.71,4.56-7.08s.22-6.29,4.61-6.92,6.4,1.14,7.77,5.05A88.59,88.59,0,0,1,484.93,235.69Z"/><path class="cls-1" d="M340.89,244.52a3.17,3.17,0,0,1,1.5-3.48c6.71-4.51,13-9.49,18-15.91,1.43-1.82,2.72-1.95,3.2.8a88.67,88.67,0,0,0,7,21.65,6,6,0,0,1-.34,6.06c-4.7,7.44-11,13.31-18,18.57-2.47,1.87-3.83.51-4.91-1.75C343.46,262.27,341.68,253.52,340.89,244.52Z"/><path class="cls-1" d="M387.87,222.58a95.93,95.93,0,0,0,20.69,18.71,3.63,3.63,0,0,1,1.46,3.6,75.38,75.38,0,0,1-5.88,25.17c-1.44,3.31-3.12,3.55-5.88,1.56A70.12,70.12,0,0,1,380.39,253c-.84-1.29-1.47-2.65-.72-4.28C383.4,240.61,386.51,232.3,387.87,222.58Z"/><path class="cls-1" d="M268.69,205.55c-.26.6-.6,1.44-1,2.26a68.27,68.27,0,0,0-6.5,23.16c-.34,3.53-1.51,4.21-4.55,2.36-4.55-2.76-9.21-5.34-13.84-8-1.71-1-2.81-2-.94-3.78a1.36,1.36,0,0,0,.27-.36c2.8-4.7-1-9.4-.16-13.81.9-4.78,2.54-9.13-1.76-12.92-1.31-1.16-.75-2-.09-3.14,1.4-2.35,2.82-4.69,4-7.13s2.42-2.11,3.84-.1a73.44,73.44,0,0,0,19.22,18.6A2.59,2.59,0,0,1,268.69,205.55Z"/><g id="Text"><path d="M202.92,218.5c-10.51,0-21-.11-31.54.06-4,.07-5.49-1.72-5.49-5.44q0-32,0-64c0-3.75,1.75-5.6,5.51-5.6q31.54,0,63.09,0c2.41,0,4.78.36,4.66,3.59-.12,3.06-2.52,3-4.67,3-18.75,0-37.49.17-56.23-.1-4.56-.06-5.57,1.36-5.47,5.67.28,12.79.22,25.6,0,38.4-.06,3.47,1,4.32,4.38,4.29,19-.16,38.1-.09,57.15-.06,2.16,0,5-.7,4.83,3-.17,3.18-2.61,3.23-5,3.23-18.9,0-37.8,0-56.69,0-3,0-4.76.12-4.73,4s1.65,4.14,4.7,4.12c18.28-.09,36.57,0,54.86,0h3.2c2,0,3.68.55,3.63,3s-1.68,2.9-3.74,2.9C224.56,218.48,213.74,218.5,202.92,218.5Z"/><path d="M628.83,181c0-10.53.16-21.05-.07-31.57-.09-4.14,1.43-5.9,5.47-5.89q31.35,0,62.69,0c2.37,0,4.91.31,5,3.4,0,3.32-2.69,3.18-5,3.18-18.75,0-37.51.12-56.27-.06-4,0-5.52.69-5.41,5.14.34,13.11.21,26.23,0,39.35,0,3,.83,3.85,3.82,3.83,18.61-.13,37.22-.07,55.82-.07q1.83,0,3.66,0c2,0,3.24,1,3.34,3s-1.48,2.86-3.23,3.13a23.33,23.33,0,0,1-3.65.1c-17.39,0-34.78-.13-52.16.15-2.7,0-7.74-3.08-7.65,4,.09,6.68,4.84,3.74,7.44,3.78,17.69.26,35.39.14,53.08.13,1.06,0,2.14,0,3.2,0,1.72.11,2.92.93,3,2.78.08,2.08-1.13,3.06-3.11,3.09-3.5.06-7,0-10.52,0-18,0-36-.1-54,.08-4.22,0-5.63-1.44-5.54-5.6C629,202.31,628.82,191.63,628.83,181Z"/><path d="M457.06,181.41c0-10.83.07-21.65-.05-32.47,0-3.56,1.19-5.53,4.93-5.43,14.6.41,29.24-.91,43.82.77,12.08,1.38,22.37,11.27,24.92,23.94,2.51,12.49-3.3,25.84-13.83,31.75-4.46,2.51-4.43,2.47-.64,6,2.55,2.4,4.95,5,7.5,7.36,1.6,1.52,2.77,3.2,1,5.08s-3.8,1-5.52-.6c-4-3.78-8-7.45-11.93-11.31a6.2,6.2,0,0,0-4.79-2c-11.89.08-23.78.13-35.67,0-2.91,0-3.78,1-3.51,3.68a53.65,53.65,0,0,1,0,6c0,2.4.5,5.26-3.26,5.26s-2.92-2.94-2.94-5C457,203.36,457.05,192.38,457.06,181.41Z"/><path d="M.08,181c0-10.67.15-21.35-.08-32-.09-4.3,1.73-5.53,5.69-5.51q30.88.12,61.76,0c2.63,0,5.49.48,5.5,3.38s-2.93,3.29-5.53,3.28c-18.91,0-37.82.07-56.73-.09C7.09,150,6,151,6,154.67c.2,13.11.18,26.23,0,39.34,0,3.34.8,4.41,4.31,4.38,19.06-.18,38.13-.08,57.19-.09,2.27,0,5.34-.43,5.44,2.54.1,3.19-2.78,3.74-5.65,3.73-18.91-.06-37.82,0-56.73-.09-3.12,0-4.61.4-4.63,4.14,0,3.94,1.9,4,4.8,4,18.46-.08,36.91-.05,55.36-.05,1.37,0,2.75,0,4.11.11a2.72,2.72,0,0,1,2.77,3,2.85,2.85,0,0,1-2.6,2.76,21.31,21.31,0,0,1-3.2.1c-20.59,0-41.18-.12-61.76.1-4.37,0-5.52-1.52-5.45-5.57C.2,202.36.08,191.69.08,181Z"/><path d="M354.42,155.23c-8.62,9.67-17,18.89-25.15,28.28-4.36,5-5.45,5.33-9.87.49-7.17-7.87-14.17-15.89-21.25-23.84-1.31-1.46-2.68-2.88-4.2-4.5-1.51,1.71-.94,3.43-.94,5-.05,17.23,0,34.46,0,51.68,0,1.38,0,2.75-.08,4.12-.11,2-1,3.14-3.15,3a2.9,2.9,0,0,1-3-3.23c0-4.11,0-8.23,0-12.34V148.47c0-2.11-.45-4.54,2.11-5.5s3.84,1.34,5.18,2.84c8.92,9.95,18,19.75,26.5,30.09,3.32,4.06,4.8,2.8,7.4-.2,8.88-10.2,17.91-20.27,26.89-30.38,1.19-1.35,2.37-3.27,4.44-2.44s2.4,3,2.4,5c0,22.26,0,44.52,0,66.78,0,2.27-.08,4.84-3.52,4.66-3.19-.17-2.87-2.57-2.87-4.68q0-27,0-54C355.13,159.1,355.55,157.41,354.42,155.23Z"/><path d="M576.69,180.52l37.66,31.35c.7.58,1.44,1.11,2.12,1.72,1.52,1.36,2.32,3.12.95,4.81s-3.24,1.34-4.85,0Q605,212.2,597.45,206c-7.84-6.49-15.75-12.9-23.48-19.53-2-1.67-3.19-1.45-5,0a58,58,0,0,1-8,6.05c-8.84,5.11-14.09,11.84-11.79,22.71.44,2,0,4.13-2.87,4.16s-3.09-1.94-3.09-4.08q0-34.31,0-68.62c0-2.13.7-3.83,2.89-3.88,2.48-.07,3.16,1.73,3.15,4,0,14.49,0,29,0,43.46v3.45c10.55-8.34,20.48-16.19,30.4-24q15.69-12.44,31.37-24.85c1.86-1.47,3.93-3.69,6.14-.68s-.66,4.49-2.41,5.89c-11.24,9-22.58,17.93-33.88,26.89C579.53,178,578.2,179.24,576.69,180.52Z"/><path d="M446.56,215.9c-.05,1.71-.49,3-2.07,3.39a3.12,3.12,0,0,1-3.85-1.66c-1.67-3.23-3.37-6.45-4.88-9.76-1.05-2.29-2.35-3.44-5.15-3.4-14.32.16-28.64.11-43,0-2.25,0-3.67.55-4.6,2.75-1.37,3.2-3.05,6.27-4.62,9.38-1.06,2.11-2.66,3.67-5.07,2.39-2.24-1.18-1.66-3.17-.7-5.14q16.54-34,33.07-68c.71-1.46,1.61-3.24,3.54-3.14s2.73,1.76,3.47,3.28q16.5,33.74,33,67.48A19.17,19.17,0,0,1,446.56,215.9Z"/><path d="M746,184.1c0,9.6,0,19.19,0,28.79,0,2.74.92,6.55-3.57,6.39-4.29-.15-3.38-4-3.39-6.66-.07-19-.19-38.08.07-57.12.07-4.54-1.32-5.71-5.64-5.46-6.22.37-12.48.1-18.73.1-2.4,0-5.07-.23-5-3.25,0-2.87,2.62-3.37,5-3.37q27.87,0,55.75,0c2.36,0,5,.32,4.95,3.39s-2.67,3.21-5,3.21c-6.85,0-13.71.13-20.56,0-2.95-.07-3.93.81-3.87,3.86C746.12,164,746,174.05,746,184.1Z"/><path d="M115.52,197.29c2.76-9.87-1.7-18.89-11.08-26.75-7.43-6.22-13.7-13.83-20.53-20.77-1.85-1.89-3.46-3.81-.94-6.16s4.13.21,5.6,1.69q14.06,14,27.92,28.26c1.9,1.95,2.94,2.16,5,0,9.11-9.61,18.42-19,27.68-28.49,1.58-1.61,3.23-3.81,5.67-1.38s.47,4.09-1.18,5.78c-9.59,9.78-19.11,19.63-28.81,29.3a9.07,9.07,0,0,0-2.9,7.21c.15,9.29.06,18.59,0,27.88,0,2.38.58,5.33-3.09,5.46-4.21.15-3.23-3.25-3.3-5.62C115.41,209,115.52,204.29,115.52,197.29Z"/></g><path class="cls-1" d="M447.46,243.44c.42,3.43-1,4.55-3.69,4.28a67.66,67.66,0,0,1-25.27-7.33,5.26,5.26,0,0,1-2.89-4.36c-.81-7.57-1.86-15.1-4.63-22.27-1.08-2.8.13-3.22,2.63-2.39,5.19,1.73,10.44,3.3,16,3.65a5.85,5.85,0,0,1,5.29,3.71c.76,1.63,1.3,3.86,3.09,4.37,6.87,1.94,7,8,8.41,13.25A58.93,58.93,0,0,1,447.46,243.44Z"/><path class="cls-1" d="M486.18,136.22a99.72,99.72,0,0,0,3.77-18c.2-1.78,1.37-1.76,2.66-1,10.11,5.87,20.24,11.7,30.32,17.63,2.57,1.51,1,3.5,0,5.1-1.17,1.92-2,5.39-5.17,3.63-8.77-4.89-18.23-3.85-27.6-4C488.16,139.6,485.54,140.08,486.18,136.22Z"/><path class="cls-1" d="M538.17,175.49c0,8.07,0,16.15,0,24.22a30.11,30.11,0,0,1-.57,6.36c-.74,3.32-3.53,5.15-6.35,6s-3.2-2.59-4.48-4.25c-2.94-3.8-3.44-6.77.46-11.21,11.55-13.14,10.93-31.85-.52-45.13-2.33-2.71-.52-10.56,2.76-11.91,2.48-1,8.54,4.72,8.64,8.48.16,5.48,0,11,0,16.47v11Z"/><path class="cls-1" d="M297.69,195.09c0-3.64-.14-7.3,0-10.94.21-4.36,1.77-4.85,5.89-3.75,7.6,2,11.85,8.09,17.14,13,1.39,1.28,1,2.36-.12,3.48a92.09,92.09,0,0,0-9.4,11.72c-3.22,4.63-7.58,1.66-11.32,1.29-3.12-.3-2.14-3.52-2.23-5.65-.13-3,0-6.08,0-9.12Z"/><path class="cls-1" d="M451.36,157.39c0,4,0,7.9,0,11.85,0,2.44-.93,3.45-3.38,2.29a105.86,105.86,0,0,0-19.32-6.76c-4-1-4.28-3.28-1.23-6.08,4.73-4.35,8.56-9.45,12.45-14.51,1.85-2.4,7.3-3.5,9.92-2.15,1.51.79,1.53,2.12,1.57,3.5v11.86Z"/><path class="cls-1" d="M494.92,209.31c9.17-2.91,12.66,6.6,18.88,11,1.57,1.11.06,2.06-1,2.69-6.32,3.66-12.64,7.33-19,11-2.28,1.31-3.69.9-4-2a64.16,64.16,0,0,0-4.09-18.18c-1.72-4.22.08-4.73,3.51-4.5C490.77,209.39,492.3,209.31,494.92,209.31Z"/><path class="cls-1" d="M410.11,121c-2,6.12-2.09,13.25-6.87,19.68-4,5.42-8,10.47-13.37,14.49-.71.53-1.32,1.5-2.32,1.1-1.15-.45-.5-1.54-.57-2.39-1.2-16,7.8-26.43,19.47-35.37.84-.64,1.69-1.47,2.84-.72C410.17,118.32,410.11,119.3,410.11,121Z"/><path class="cls-1" d="M383,133.74c.84,2.49,0,4.86-1.24,7.24s-2.27,5-3.48,7.45c-.7,1.41-.43,4-2.44,3.89-1.83-.08-1.63-2.64-2.42-4-.59-1.05-.8-2.32-1.4-3.37-7-11.93-2.08-23.19,1.88-34.51.25-.71.6-1.57,1.49-1.5,1.47.11,1.85,1.47,2.31,2.55A65.55,65.55,0,0,1,383,133.74Z"/><path class="cls-1" d="M349.86,194c-.27,4-2,7.49-5.85,9.41a68.78,68.78,0,0,1-23.48,6.9c-1,.11-2.26.65-2.94-.46s.22-2.33.89-3.31c4.61-6.77,10.86-11.91,17.55-16.35,3.08-2,7.29-2,11.07-1.76C350.44,188.72,349.6,191.66,349.86,194Z"/><path class="cls-1" d="M396.51,209.32c7.3,0,7.63.23,10.12,7.12a68.68,68.68,0,0,1,3.54,15c.12,1,.4,2.31-.59,3s-2-.33-2.81-.92a59.81,59.81,0,0,1-16.46-17.38c-3.33-5.42-2.48-6.76,3.93-6.81Z"/><path class="cls-1" d="M304.52,141.62c3.32-.61,5.84,1,8,4.1,3.85,5.68,8.11,11.06,13.79,15.11.84.59,1.89,1.33,1.57,2.55s-1.72,1-2.68,1.34c-5,1.75-9,1.52-12.5-3.65s-8.5-9.51-12.69-14.33c-.91-1.05-2.65-2.21-1.87-3.84s2.66-1.14,4.14-1.27C302.85,141.57,303.46,141.62,304.52,141.62Z"/><path class="cls-1" d="M451.37,195c0,3.81,0,7.62,0,11.42,0,1.31.19,3-1.66,3.3-1.56.28-2-1.15-2.5-2.21-3.11-6.27-6.17-12.58-9.31-18.83-1.22-2.43-.79-4,1.88-4.95,2.27-.84,4.44-2,6.65-3,4.26-2,4.89-1.55,5,3.31C451.42,187.67,451.37,191.33,451.37,195Z"/><path class="cls-1" d="M362.9,139.17c-4.8.47-9,.07-12.44,3-1.22,1-2.32.43-3-.84a56.44,56.44,0,0,1-5.68-20.59c-.32-3.19,2-2.43,3.64-1.25A56.19,56.19,0,0,1,362.9,139.17Z"/><path class="cls-1" d="M320.45,141.9a65.68,65.68,0,0,1,20.42,5.94c2.3,1.09,2.85,2,.88,4.26-8.47,9.56-6.06,10.72-16.74.74a77.33,77.33,0,0,1-6.5-7.57c-.67-.81-1.35-1.83-.59-2.88C318.52,141.57,319.55,141.75,320.45,141.9Z"/><path class="cls-1" d="M382.67,219.13c.39,9.07-2.4,16.25-5.38,23.36-1,2.45-2.05,1.56-2.92-.27a75.51,75.51,0,0,1-5.1-16c-.6-2.58.47-4.09,3.17-2.73C376.91,225.78,379.58,223.51,382.67,219.13Z"/><path class="cls-1" d="M349.85,208.16c0,3-.05,6,0,9,.05,2.35.46,4.82,2.78,5.86,2.57,1.15,1.85,2.13.47,3.59a47.43,47.43,0,0,1-8.73,7.27c-1.59,1-2.95,1.07-2.87-1.46.3-8.79,3.45-16.72,6.87-24.57Z"/><path class="cls-1" d="M430.41,141.63c2.86.08,5.18.5,3,3.28-2.57,3.33-5,6.82-8.43,9.43-1.91,1.45-2.95,1.24-4.11-1-4.41-8.61-4.49-8.59,4.78-10.76C427.43,142.13,429.22,141.85,430.41,141.63Z"/><path class="cls-1" d="M436,179.87c-2.12-.08-6.33-6.67-5.46-8.12a1.58,1.58,0,0,1,2-.51A34.08,34.08,0,0,1,437.7,173c1.9.92,5.58,1.13,5,3.53S438.27,179.09,436,179.87Z"/><path class="cls-1" d="M336.52,182.41c2.32-2.7,4.49-5.55,7-8.06,1.76-1.74,4.07-1.69,5.49.51s0,3.61-2.13,4.5c-3.17,1.35-6.31,2.76-9.46,4.15Z"/><path class="cls-1" d="M280.77,197.62c.48,2.32,1.06,4.27-.39,5.83-.71.76-1.81-.09-2.14-.91C277.31,200.21,278.94,199.11,280.77,197.62Z"/><path class="cls-1" d="M279.52,148.55c1.41.13,1.56,1.22,1.59,2.29,0,.84.34,2.18-.85,2.21-1.42,0-1.83-1.37-2.1-2.55A1.49,1.49,0,0,1,279.52,148.55Z"/><path class="cls-1" d="M485.31,150.14c5.48,0,11,0,16.44,0,11.43,0,21.77,9.69,22.78,21.26,1.13,12.93-6.78,24.16-18.79,26-13.28,2.08-26.71.42-40.06.92-2.2.09-2.41-1.09-2.41-2.82,0-14.16.08-28.32,0-42.47,0-2.63,1.21-3,3.34-2.95C472.82,150.19,479.07,150.14,485.31,150.14Z"/><path class="cls-1" d="M409.19,152.7c7.44,15.55,14.42,30.15,21.63,45.24H387.63Z"/><path class="cls-1" d="M467.76,174.45c-2.34-7,2.78-12.12,7.53-17.31,2.91-3.18,6.58-2.64,9.48-.39a68.53,68.53,0,0,1,15.64,17.1c1.27,2,.84,3.71-.42,5.48a81,81,0,0,1-10.34,12.13c-4.23,4-9.86,3.25-14.17,1.39-4-1.71-7.91-5.29-7.73-10.88C467.82,179.84,467.76,177.71,467.76,174.45Z"/><path class="cls-1" d="M519.09,174.1c.35,3.47-.75,6.59-2.23,9.61-1.11,2.27-2.15,2.5-3.83.25-5-6.67-4.62-12.84,1.2-18.8,1.55-1.59,2.3-.78,3,.68A15.27,15.27,0,0,1,519.09,174.1Z"/><path class="cls-1" d="M500,155.26c.76,0,1.52,0,2.28,0,3.4.23,7.56.71,8.46,4s-2.67,6.13-4.41,9.08c-.71,1.2-1.8.84-2.63-.12q-4.62-5.33-9.21-10.66c-1.16-1.37-.8-2.22,1-2.33,1.51-.09,3,0,4.54,0Z"/><path class="cls-1" d="M499.47,193.69c-.72-.11-2.3.56-2.93-.67-.75-1.49.77-2.42,1.62-3.44s1.73-2.13,2.7-3.08c1.41-1.36,2.09-4.76,4.49-3.48s3.29,4.29,4,6.94c.35,1.25-1,1.79-1.94,2.2A16.13,16.13,0,0,1,499.47,193.69Z"/><path class="cls-1" d="M416.82,181.54c0,2.14-1.34,2.21-2.51,1.73-3.49-1.45-6.91-3-10.34-4.63a1.88,1.88,0,0,1-1.1-2.25c.82-3.52,3.88-4.47,6.69-5.43,2.46-.84,2.93,1.4,3.69,3C414.46,176.57,415.69,179.16,416.82,181.54Z"/><path class="cls-1" d="M408.78,193.77c-2.87-.44-6.4.94-9.37-1.34-1.18-.9-2.76-2-2.22-3.67.63-2,2.49-1.17,3.94-1,4.07.57,8.16,1,12.19,1.81,1.61.3,3.85,1.3,3.67,2.91-.26,2.22-2.7,1-4.17,1.21A26.53,26.53,0,0,1,408.78,193.77Z"/></g></g></svg>